{"title":"Total Siyapa 2014 DVDRip X26  HINDI GOPI SAHI","uid":9946483,"size":370582804,"categoryP":"video","categoryS":"movies","magnet":"?xt=urn:btih:434d57d9d1d780b6ae29ded0c076d8031e619cb0&amp;dn=Total+Siyapa+2014+DVDRip+X26++HINDI+GOPI+SAHI&amp;tr=udp%3A%2F%2Ftracker.openbittorrent.com%3A80&amp;tr=udp%3A%2F%2Fopen.demonii.com%3A1337&amp;tr=udp%3A%2F%2Ftracker.coppersurfer.tk%3A6969&amp;tr=udp%3A%2F%2Fexodus.desync.com%3A6969","seeders":1,"leechers":0,"uploader":"jatt13","files":1,"time":1397321549,"description":" &lt;a href=&quot;http://www.imdb.com/title/tt2727028/&quot; rel=&quot;nofollow&quot; target=&quot;_NEW&quot;&gt;http://www.imdb.com/title/tt2727028/&lt;/a&gt;\nVideo\nID                             : 1\nFormat                         : AVC\nFormat/Info                    : Advanced Video Codec\nFormat profile                 : &lt;a class=&quot;__cf_email__&quot; href=&quot;/cdn-cgi/l/email-protection&quot; data-cfemail=&quot;084569616648443c2638&quot;&gt;[email&amp;#160;protected]&lt;/a&gt;&lt;script cf-hash='f9e31' type=&quot;text/javascript&quot;&gt;\n/* &lt;![CDATA[ */!function(){try{var t=&quot;currentScript&quot;in document?document.currentScript:function(){for(var t=document.getElementsByTagName(&quot;script&quot;),e=t.length;e--;)if(t[e].getAttribute(&quot;cf-hash&quot;))return t[e]}();if(t&amp;&amp;t.previousSibling){var e,r,n,i,c=t.previousSibling,a=c.getAttribute(&quot;data-cfemail&quot;);if(a){for(e=&quot;&quot;,r=parseInt(a.substr(0,2),16),n=2;a.length-n;n+=2)i=parseInt(a.substr(n,2),16)^r,e+=String.fromCharCode(i);e=document.createTextNode(e),c.parentNode.replaceChild(e,c)}}}catch(u){}}();/* ]]&gt; */&lt;/script&gt;\nFormat settings, CABAC         : Yes\nFormat settings, ReFrames      : 4 frames\nCodec ID                       : V_MPEG4/ISO/AVC\nDuration                       : 1h 44mn\nBit rate                       : 400 Kbps\nWidth                          : 640 pixels\nHeight                         : 272 pixels\nDisplay aspect ratio           : 2.35:1\nFrame rate mode                : Constant\nFrame rate                     : 25.000 fps\nColor space                    : YUV\nChroma subsampling             : 4:2:0\nBit depth                      : 8 bits\nScan type                      : Progressive\nBits/(Pixel*Frame)             : 0.092\nStream size                    : 298 MiB (84%)\nWriting library                : x264 core 130 r2273 b3065e6\nLanguage                       : English\nDefault                        : Yes\nForced                         : No\nColor primaries                : BT.601 PAL\nTransfer characteristics       : BT.709\nMatrix coefficients            : BT.601\n\nAudio\nID                             : 2\nFormat                         : MPEG Audio\nFormat version                 : Version 1\nFormat profile                 : Layer 2\nCodec ID                       : A_MPEG/L2\nCodec ID/Hint                  : MP2\nDuration                       : 1h 44mn\nBit rate mode                  : Constant\nBit rate                       : 64.0 Kbps\nChannel count                  : 2 channels\nSampling rate                  : 44.1 KHz\nCompression mode               : Lossy\nStream size                    : 48.1 MiB (14%)\nDefault                        : Yes\n[IMG]http://i.imgur.com/LEzB1mH.jpg[/IMG]\n[IMG]http://i.imgur.com/9qM2mrl.jpg[/IMG]\n[IMG]http://i.imgur.com/j8p5IsW.jpg[/IMG]\n[IMG]http://i.imgur.com/aqsdkTM.jpg[/IMG]\n","torrent":{"xt":"urn:btih:434d57d9d1d780b6ae29ded0c076d8031e619cb0","amp;dn":"Total+Siyapa+2014+DVDRip+X26++HINDI+GOPI+SAHI","amp;tr":["udp%3A%2F%2Ftracker.openbittorrent.com%3A80","udp%3A%2F%2Fopen.demonii.com%3A1337","udp%3A%2F%2Ftracker.coppersurfer.tk%3A6969","udp%3A%2F%2Fexodus.desync.com%3A6969"],"infoHash":"434d57d9d1d780b6ae29ded0c076d8031e619cb0","infoHashBuffer":{"type":"Buffer","data":[67,77,87,217,209,215,128,182,174,41,222,208,192,118,216,3,30,97,156,176]},"announce":[],"urlList":[]}}